<svg xmlns="http://www.w3.org/2000/svg" viewBox="0 0 240 300"><defs><radialGradient id="g"><stop stop-color="#40866c" stop-opacity=".45"/><stop offset="1" stop-color="#40866c" stop-opacity="0"/></radialGradient></defs><ellipse cx="120" cy="155" rx="110" ry="140" fill="url(#g)"/><ellipse cx="120" cy="283" rx="77" ry="10" fill="#17151d" opacity=".3"/><path d="M78 150 60 231 92 241 120 185 147 241 180 232 162 151Z" fill="#40866c" stroke="#272731" stroke-width="5"/><path d="M82 229 79 272 104 274 112 223M131 224 138 274 164 270 157 228" fill="#443b39" stroke="#252630" stroke-width="6"/><path d="m73 267-6 17 40 0-4-16m34-1-2 17 41 0-10-18" fill="#332b29"/><path d="M78 105Q120 89 164 106L159 176Q120 194 78 176Z" fill="#695744" stroke="#252630" stroke-width="5"/><path d="M78 163H163V177H78Z" fill="#63442f"/><rect x="111" y="162" width="22" height="18" rx="3" fill="#e5bd68" stroke="#7b562b" stroke-width="3"/><path d="M75 108 55 130 48 176 65 183 90 143m72-36 24 23 13 41-20 11-23-40" fill="#40866c" stroke="#2d3036" stroke-width="6"/><path d="M91 68Q84 32 124 33Q157 33 151 72L145 96 123 109 99 94Z" fill="#ce9d7b" stroke="#3b3330" stroke-width="4"/><path d="M90 71Q76 31 119 26Q161 24 156 65L142 50 125 51 112 43 101 66Z" fill="#423329"/><path d="m102 72 11 0m20 0 11 0" stroke="#342b2d" stroke-width="4" stroke-linecap="round"/><path d="M120 75 117 86 124 87M116 95l15-1" fill="none" stroke="#855347" stroke-width="3"/><path d="M83 53Q119 1 155 50L161 88 143 74 147 46 122 37 98 60 98 89 80 91Z" fill="#346451" stroke="#20392f" stroke-width="5"/><path d="m87 107 50 57 18-12-49-56Z" fill="#4c392e"/><path d="m34 181 9-49 16 28 4 30m125-14 18-35 2 52-15 8" fill="#d4e3d7" stroke="#475a53" stroke-width="4"/><path d="m31 180 35 12m117-8 31 13" stroke="#d8b66b" stroke-width="7"/></svg>